<svg xmlns="http://www.w3.org/2000/svg" version="1.1" xmlns:xlink="http://www.w3.org/1999/xlink" xmlns:svgjs="http://svgjs.com/svgjs" width="1440" height="560" preserveAspectRatio="none" viewBox="0 0 1440 560"><g mask="url(&quot;#SvgjsMask1503&quot;)" fill="none"><rect width="1440" height="560" x="0" y="0" fill="url(#SvgjsLinearGradient1504)"></rect><path d="M-60.14 397.52L-60.14 397.52" stroke="rgba(13, 110, 253, 1)" stroke-width="1.5"></path><path d="M-60.14 397.52L-68.66 515.91" stroke="rgba(13, 110, 253, 1)" stroke-width="1.5"></path><path d="M-60.14 397.52L82.51 351.73" stroke="rgba(13, 110, 253, 1)" stroke-width="1.5"></path><path d="M-60.14 397.52L93.47 493.21" stroke="rgba(13, 110, 253, 1)" stroke-width="1.5"></path><path d="M-60.14 397.52L208.87 522.77" stroke="rgba(13, 110, 253, 1)" stroke-width="1.5"></path><path d="M-68.66 515.91L-68.66 515.91" stroke="rgba(13, 110, 253, 1)" stroke-width="1.5"></path><path d="M-68.66 515.91L93.47 493.21" stroke="rgba(13, 110, 253, 1)" stroke-width="1.5"></path><path d="M-68.66 515.91L-56.68 704.75" stroke="rgba(13, 110, 253, 1)" stroke-width="1.5"></path><path d="M-68.66 515.91L50.71 698.82" stroke="rgba(13, 110, 253, 1)" stroke-width="1.5"></path><path d="M-68.66 515.91L82.51 351.73" stroke="rgba(13, 110, 253, 1)" stroke-width="1.5"></path><path d="M-68.66 515.91L208.87 522.77" stroke="rgba(13, 110, 253, 1)" stroke-width="1.5"></path><path d="M-56.68 704.75L-56.68 704.75" stroke="rgba(13, 110, 253, 1)" stroke-width="1.5"></path><path d="M-56.68 704.75L50.71 698.82" stroke="rgba(13, 110, 253, 1)" stroke-width="1.5"></path><path d="M82.51 351.73L82.51 351.73" stroke="rgba(13, 110, 253, 1)" stroke-width="1.5"></path><path d="M82.51 351.73L93.47 493.21" stroke="rgba(13, 110, 253, 1)" stroke-width="1.5"></path><path d="M82.51 351.73L208.87 522.77" stroke="rgba(13, 110, 253, 1)" stroke-width="1.5"></path><path d="M82.51 351.73L380.92 386.13" stroke="rgba(13, 110, 253, 1)" stroke-width="1.5"></path><path d="M82.51 351.73L50.71 698.82" stroke="rgba(13, 110, 253, 1)" stroke-width="1.5"></path><path d="M93.47 493.21L93.47 493.21" stroke="rgba(13, 110, 253, 1)" stroke-width="1.5"></path><path d="M93.47 493.21L208.87 522.77" stroke="rgba(13, 110, 253, 1)" stroke-width="1.5"></path><path d="M93.47 493.21L50.71 698.82" stroke="rgba(13, 110, 253, 1)" stroke-width="1.5"></path><path d="M50.71 698.82L50.71 698.82" stroke="rgba(13, 110, 253, 1)" stroke-width="1.5"></path><path d="M50.71 698.82L215.13 681.18" stroke="rgba(13, 110, 253, 1)" stroke-width="1.5"></path><path d="M208.87 522.77L208.87 522.77" stroke="rgba(13, 110, 253, 1)" stroke-width="1.5"></path><path d="M208.87 522.77L215.13 681.18" stroke="rgba(13, 110, 253, 1)" stroke-width="1.5"></path><path d="M208.87 522.77L379.16 541.13" stroke="rgba(13, 110, 253, 1)" stroke-width="1.5"></path><path d="M208.87 522.77L380.92 386.13" stroke="rgba(13, 110, 253, 1)" stroke-width="1.5"></path><path d="M215.13 681.18L215.13 681.18" stroke="rgba(13, 110, 253, 1)" stroke-width="1.5"></path><path d="M215.13 681.18L377.93 670" stroke="rgba(13, 110, 253, 1)" stroke-width="1.5"></path><path d="M380.92 386.13L380.92 386.13" stroke="rgba(13, 110, 253, 1)" stroke-width="1.5"></path><path d="M380.92 386.13L523.28 359.71" stroke="rgba(13, 110, 253, 1)" stroke-width="1.5"></path><path d="M380.92 386.13L379.16 541.13" stroke="rgba(13, 110, 253, 1)" stroke-width="1.5"></path><path d="M380.92 386.13L504.48 498.97" stroke="rgba(13, 110, 253, 1)" stroke-width="1.5"></path><path d="M379.16 541.13L379.16 541.13" stroke="rgba(13, 110, 253, 1)" stroke-width="1.5"></path><path d="M379.16 541.13L377.93 670" stroke="rgba(13, 110, 253, 1)" stroke-width="1.5"></path><path d="M379.16 541.13L504.48 498.97" stroke="rgba(13, 110, 253, 1)" stroke-width="1.5"></path><path d="M377.93 670L377.93 670" stroke="rgba(13, 110, 253, 1)" stroke-width="1.5"></path><path d="M377.93 670L519.99 668.22" stroke="rgba(13, 110, 253, 1)" stroke-width="1.5"></path><path d="M523.28 359.71L523.28 359.71" stroke="rgba(13, 110, 253, 1)" stroke-width="1.5"></path><path d="M523.28 359.71L639.09 344.03" stroke="rgba(13, 110, 253, 1)" stroke-width="1.5"></path><path d="M523.28 359.71L504.48 498.97" stroke="rgba(13, 110, 253, 1)" stroke-width="1.5"></path><path d="M523.28 359.71L379.16 541.13" stroke="rgba(13, 110, 253, 1)" stroke-width="1.5"></path><path d="M504.48 498.97L504.48 498.97" stroke="rgba(13, 110, 253, 1)" stroke-width="1.5"></path><path d="M519.99 668.22L519.99 668.22" stroke="rgba(13, 110, 253, 1)" stroke-width="1.5"></path><path d="M519.99 668.22L504.48 498.97" stroke="rgba(13, 110, 253, 1)" stroke-width="1.5"></path><path d="M639.09 344.03L639.09 344.03" stroke="rgba(13, 110, 253, 1)" stroke-width="1.5"></path><path d="M639.09 344.03L793.8 389.2" stroke="rgba(13, 110, 253, 1)" stroke-width="1.5"></path><path d="M639.09 344.03L787.65 220.75" stroke="rgba(13, 110, 253, 1)" stroke-width="1.5"></path><path d="M639.09 344.03L504.48 498.97" stroke="rgba(13, 110, 253, 1)" stroke-width="1.5"></path><path d="M639.09 344.03L380.92 386.13" stroke="rgba(13, 110, 253, 1)" stroke-width="1.5"></path><path d="M705.97 652.75L705.97 652.75" stroke="rgba(13, 110, 253, 1)" stroke-width="1.5"></path><path d="M705.97 652.75L824.52 696.45" stroke="rgba(13, 110, 253, 1)" stroke-width="1.5"></path><path d="M705.97 652.75L818.61 561.66" stroke="rgba(13, 110, 253, 1)" stroke-width="1.5"></path><path d="M705.97 652.75L519.99 668.22" stroke="rgba(13, 110, 253, 1)" stroke-width="1.5"></path><path d="M705.97 652.75L938 672.69" stroke="rgba(13, 110, 253, 1)" stroke-width="1.5"></path><path d="M705.97 652.75L504.48 498.97" stroke="rgba(13, 110, 253, 1)" stroke-width="1.5"></path><path d="M787.65 220.75L787.65 220.75" stroke="rgba(13, 110, 253, 1)" stroke-width="1.5"></path><path d="M787.65 220.75L793.8 389.2" stroke="rgba(13, 110, 253, 1)" stroke-width="1.5"></path><path d="M787.65 220.75L939.63 82.79" stroke="rgba(13, 110, 253, 1)" stroke-width="1.5"></path><path d="M787.65 220.75L1006.01 244.88" stroke="rgba(13, 110, 253, 1)" stroke-width="1.5"></path><path d="M787.65 220.75L1012.34 404.77" stroke="rgba(13, 110, 253, 1)" stroke-width="1.5"></path><path d="M793.8 389.2L793.8 389.2" stroke="rgba(13, 110, 253, 1)" stroke-width="1.5"></path><path d="M793.8 389.2L818.61 561.66" stroke="rgba(13, 110, 253, 1)" stroke-width="1.5"></path><path d="M793.8 389.2L1012.34 404.77" stroke="rgba(13, 110, 253, 1)" stroke-width="1.5"></path><path d="M793.8 389.2L989.18 492.12" stroke="rgba(13, 110, 253, 1)" stroke-width="1.5"></path><path d="M793.8 389.2L1006.01 244.88" stroke="rgba(13, 110, 253, 1)" stroke-width="1.5"></path><path d="M818.61 561.66L818.61 561.66" stroke="rgba(13, 110, 253, 1)" stroke-width="1.5"></path><path d="M818.61 561.66L824.52 696.45" stroke="rgba(13, 110, 253, 1)" stroke-width="1.5"></path><path d="M818.61 561.66L938 672.69" stroke="rgba(13, 110, 253, 1)" stroke-width="1.5"></path><path d="M818.61 561.66L989.18 492.12" stroke="rgba(13, 110, 253, 1)" stroke-width="1.5"></path><path d="M824.52 696.45L824.52 696.45" stroke="rgba(13, 110, 253, 1)" stroke-width="1.5"></path><path d="M824.52 696.45L938 672.69" stroke="rgba(13, 110, 253, 1)" stroke-width="1.5"></path><path d="M958.3 -54.3L958.3 -54.3" stroke="rgba(13, 110, 253, 1)" stroke-width="1.5"></path><path d="M958.3 -54.3L939.63 82.79" stroke="rgba(13, 110, 253, 1)" stroke-width="1.5"></path><path d="M958.3 -54.3L1136.04 -112.3" stroke="rgba(13, 110, 253, 1)" stroke-width="1.5"></path><path d="M958.3 -54.3L1099.14 105.61" stroke="rgba(13, 110, 253, 1)" stroke-width="1.5"></path><path d="M958.3 -54.3L1006.01 244.88" stroke="rgba(13, 110, 253, 1)" stroke-width="1.5"></path><path d="M958.3 -54.3L1109.3 211.92" stroke="rgba(13, 110, 253, 1)" stroke-width="1.5"></path><path d="M939.63 82.79L939.63 82.79" stroke="rgba(13, 110, 253, 1)" stroke-width="1.5"></path><path d="M939.63 82.79L1099.14 105.61" stroke="rgba(13, 110, 253, 1)" stroke-width="1.5"></path><path d="M1006.01 244.88L1006.01 244.88" stroke="rgba(13, 110, 253, 1)" stroke-width="1.5"></path><path d="M1006.01 244.88L1109.3 211.92" stroke="rgba(13, 110, 253, 1)" stroke-width="1.5"></path><path d="M1006.01 244.88L1012.34 404.77" stroke="rgba(13, 110, 253, 1)" stroke-width="1.5"></path><path d="M1006.01 244.88L1099.14 105.61" stroke="rgba(13, 110, 253, 1)" stroke-width="1.5"></path><path d="M1012.34 404.77L1012.34 404.77" stroke="rgba(13, 110, 253, 1)" stroke-width="1.5"></path><path d="M1012.34 404.77L989.18 492.12" stroke="rgba(13, 110, 253, 1)" stroke-width="1.5"></path><path d="M1012.34 404.77L1119.63 369.11" stroke="rgba(13, 110, 253, 1)" stroke-width="1.5"></path><path d="M1012.34 404.77L1159.21 556.35" stroke="rgba(13, 110, 253, 1)" stroke-width="1.5"></path><path d="M1012.34 404.77L1109.3 211.92" stroke="rgba(13, 110, 253, 1)" stroke-width="1.5"></path><path d="M989.18 492.12L989.18 492.12" stroke="rgba(13, 110, 253, 1)" stroke-width="1.5"></path><path d="M989.18 492.12L1119.63 369.11" stroke="rgba(13, 110, 253, 1)" stroke-width="1.5"></path><path d="M989.18 492.12L1159.21 556.35" stroke="rgba(13, 110, 253, 1)" stroke-width="1.5"></path><path d="M938 672.69L938 672.69" stroke="rgba(13, 110, 253, 1)" stroke-width="1.5"></path><path d="M1136.04 -112.3L1136.04 -112.3" stroke="rgba(13, 110, 253, 1)" stroke-width="1.5"></path><path d="M1136.04 -112.3L1270.09 -64.76" stroke="rgba(13, 110, 253, 1)" stroke-width="1.5"></path><path d="M1136.04 -112.3L1099.14 105.61" stroke="rgba(13, 110, 253, 1)" stroke-width="1.5"></path><path d="M1136.04 -112.3L1311.44 55.07" stroke="rgba(13, 110, 253, 1)" stroke-width="1.5"></path><path d="M1136.04 -112.3L939.63 82.79" stroke="rgba(13, 110, 253, 1)" stroke-width="1.5"></path><path d="M1136.04 -112.3L1418.31 -80.11" stroke="rgba(13, 110, 253, 1)" stroke-width="1.5"></path><path d="M1099.14 105.61L1099.14 105.61" stroke="rgba(13, 110, 253, 1)" stroke-width="1.5"></path><path d="M1099.14 105.61L1109.3 211.92" stroke="rgba(13, 110, 253, 1)" stroke-width="1.5"></path><path d="M1109.3 211.92L1109.3 211.92" stroke="rgba(13, 110, 253, 1)" stroke-width="1.5"></path><path d="M1119.63 369.11L1119.63 369.11" stroke="rgba(13, 110, 253, 1)" stroke-width="1.5"></path><path d="M1119.63 369.11L1109.3 211.92" stroke="rgba(13, 110, 253, 1)" stroke-width="1.5"></path><path d="M1159.21 556.35L1159.21 556.35" stroke="rgba(13, 110, 253, 1)" stroke-width="1.5"></path><path d="M1159.21 556.35L1150.2 652.73" stroke="rgba(13, 110, 253, 1)" stroke-width="1.5"></path><path d="M1159.21 556.35L1311.51 551.13" stroke="rgba(13, 110, 253, 1)" stroke-width="1.5"></path><path d="M1159.21 556.35L1296.05 679.99" stroke="rgba(13, 110, 253, 1)" stroke-width="1.5"></path><path d="M1159.21 556.35L1119.63 369.11" stroke="rgba(13, 110, 253, 1)" stroke-width="1.5"></path><path d="M1150.2 652.73L1150.2 652.73" stroke="rgba(13, 110, 253, 1)" stroke-width="1.5"></path><path d="M1150.2 652.73L1296.05 679.99" stroke="rgba(13, 110, 253, 1)" stroke-width="1.5"></path><path d="M1150.2 652.73L1311.51 551.13" stroke="rgba(13, 110, 253, 1)" stroke-width="1.5"></path><path d="M1270.09 -64.76L1270.09 -64.76" stroke="rgba(13, 110, 253, 1)" stroke-width="1.5"></path><path d="M1270.09 -64.76L1311.44 55.07" stroke="rgba(13, 110, 253, 1)" stroke-width="1.5"></path><path d="M1270.09 -64.76L1418.31 -80.11" stroke="rgba(13, 110, 253, 1)" stroke-width="1.5"></path><path d="M1311.44 55.07L1311.44 55.07" stroke="rgba(13, 110, 253, 1)" stroke-width="1.5"></path><path d="M1311.44 55.07L1429.92 69.38" stroke="rgba(13, 110, 253, 1)" stroke-width="1.5"></path><path d="M1264.68 245.63L1264.68 245.63" stroke="rgba(13, 110, 253, 1)" stroke-width="1.5"></path><path d="M1264.68 245.63L1294.66 338.9" stroke="rgba(13, 110, 253, 1)" stroke-width="1.5"></path><path d="M1264.68 245.63L1109.3 211.92" stroke="rgba(13, 110, 253, 1)" stroke-width="1.5"></path><path d="M1264.68 245.63L1119.63 369.11" stroke="rgba(13, 110, 253, 1)" stroke-width="1.5"></path><path d="M1264.68 245.63L1311.44 55.07" stroke="rgba(13, 110, 253, 1)" stroke-width="1.5"></path><path d="M1264.68 245.63L1099.14 105.61" stroke="rgba(13, 110, 253, 1)" stroke-width="1.5"></path><path d="M1294.66 338.9L1294.66 338.9" stroke="rgba(13, 110, 253, 1)" stroke-width="1.5"></path><path d="M1294.66 338.9L1424.88 401.94" stroke="rgba(13, 110, 253, 1)" stroke-width="1.5"></path><path d="M1294.66 338.9L1119.63 369.11" stroke="rgba(13, 110, 253, 1)" stroke-width="1.5"></path><path d="M1311.51 551.13L1311.51 551.13" stroke="rgba(13, 110, 253, 1)" stroke-width="1.5"></path><path d="M1311.51 551.13L1296.05 679.99" stroke="rgba(13, 110, 253, 1)" stroke-width="1.5"></path><path d="M1311.51 551.13L1411.12 642.61" stroke="rgba(13, 110, 253, 1)" stroke-width="1.5"></path><path d="M1311.51 551.13L1449.45 553.82" stroke="rgba(13, 110, 253, 1)" stroke-width="1.5"></path><path d="M1296.05 679.99L1296.05 679.99" stroke="rgba(13, 110, 253, 1)" stroke-width="1.5"></path><path d="M1296.05 679.99L1411.12 642.61" stroke="rgba(13, 110, 253, 1)" stroke-width="1.5"></path><path d="M1418.31 -80.11L1418.31 -80.11" stroke="rgba(13, 110, 253, 1)" stroke-width="1.5"></path><path d="M1418.31 -80.11L1429.92 69.38" stroke="rgba(13, 110, 253, 1)" stroke-width="1.5"></path><path d="M1418.31 -80.11L1311.44 55.07" stroke="rgba(13, 110, 253, 1)" stroke-width="1.5"></path><path d="M1418.31 -80.11L1607.93 -64.84" stroke="rgba(13, 110, 253, 1)" stroke-width="1.5"></path><path d="M1418.31 -80.11L1562.57 61.23" stroke="rgba(13, 110, 253, 1)" stroke-width="1.5"></path><path d="M1429.92 69.38L1429.92 69.38" stroke="rgba(13, 110, 253, 1)" stroke-width="1.5"></path><path d="M1429.92 69.38L1562.57 61.23" stroke="rgba(13, 110, 253, 1)" stroke-width="1.5"></path><path d="M1429.92 69.38L1539.84 208.37" stroke="rgba(13, 110, 253, 1)" stroke-width="1.5"></path><path d="M1424.88 401.94L1424.88 401.94" stroke="rgba(13, 110, 253, 1)" stroke-width="1.5"></path><path d="M1424.88 401.94L1572.69 402.4" stroke="rgba(13, 110, 253, 1)" stroke-width="1.5"></path><path d="M1424.88 401.94L1449.45 553.82" stroke="rgba(13, 110, 253, 1)" stroke-width="1.5"></path><path d="M1424.88 401.94L1568.85 516.62" stroke="rgba(13, 110, 253, 1)" stroke-width="1.5"></path><path d="M1424.88 401.94L1311.51 551.13" stroke="rgba(13, 110, 253, 1)" stroke-width="1.5"></path><path d="M1449.45 553.82L1449.45 553.82" stroke="rgba(13, 110, 253, 1)" stroke-width="1.5"></path><path d="M1449.45 553.82L1411.12 642.61" stroke="rgba(13, 110, 253, 1)" stroke-width="1.5"></path><path d="M1449.45 553.82L1568.85 516.62" stroke="rgba(13, 110, 253, 1)" stroke-width="1.5"></path><path d="M1411.12 642.61L1411.12 642.61" stroke="rgba(13, 110, 253, 1)" stroke-width="1.5"></path><path d="M1411.12 642.61L1609.71 671.39" stroke="rgba(13, 110, 253, 1)" stroke-width="1.5"></path><path d="M1607.93 -64.84L1607.93 -64.84" stroke="rgba(13, 110, 253, 1)" stroke-width="1.5"></path><path d="M1607.93 -64.84L1562.57 61.23" stroke="rgba(13, 110, 253, 1)" stroke-width="1.5"></path><path d="M1607.93 -64.84L1429.92 69.38" stroke="rgba(13, 110, 253, 1)" stroke-width="1.5"></path><path d="M1607.93 -64.84L1539.84 208.37" stroke="rgba(13, 110, 253, 1)" stroke-width="1.5"></path><path d="M1607.93 -64.84L1311.44 55.07" stroke="rgba(13, 110, 253, 1)" stroke-width="1.5"></path><path d="M1562.57 61.23L1562.57 61.23" stroke="rgba(13, 110, 253, 1)" stroke-width="1.5"></path><path d="M1562.57 61.23L1539.84 208.37" stroke="rgba(13, 110, 253, 1)" stroke-width="1.5"></path><path d="M1562.57 61.23L1311.44 55.07" stroke="rgba(13, 110, 253, 1)" stroke-width="1.5"></path><path d="M1539.84 208.37L1539.84 208.37" stroke="rgba(13, 110, 253, 1)" stroke-width="1.5"></path><path d="M1539.84 208.37L1572.69 402.4" stroke="rgba(13, 110, 253, 1)" stroke-width="1.5"></path><path d="M1539.84 208.37L1424.88 401.94" stroke="rgba(13, 110, 253, 1)" stroke-width="1.5"></path><path d="M1539.84 208.37L1311.44 55.07" stroke="rgba(13, 110, 253, 1)" stroke-width="1.5"></path><path d="M1539.84 208.37L1264.68 245.63" stroke="rgba(13, 110, 253, 1)" stroke-width="1.5"></path><path d="M1572.69 402.4L1572.69 402.4" stroke="rgba(13, 110, 253, 1)" stroke-width="1.5"></path><path d="M1572.69 402.4L1568.85 516.62" stroke="rgba(13, 110, 253, 1)" stroke-width="1.5"></path><path d="M1572.69 402.4L1449.45 553.82" stroke="rgba(13, 110, 253, 1)" stroke-width="1.5"></path><path d="M1572.69 402.4L1609.71 671.39" stroke="rgba(13, 110, 253, 1)" stroke-width="1.5"></path><path d="M1568.85 516.62L1568.85 516.62" stroke="rgba(13, 110, 253, 1)" stroke-width="1.5"></path><path d="M1568.85 516.62L1609.71 671.39" stroke="rgba(13, 110, 253, 1)" stroke-width="1.5"></path><path d="M1609.71 671.39L1609.71 671.39" stroke="rgba(13, 110, 253, 1)" stroke-width="1.5"></path><path d="M1609.71 671.39L1449.45 553.82" stroke="rgba(13, 110, 253, 1)" stroke-width="1.5"></path><path d="M1609.71 671.39L1296.05 679.99" stroke="rgba(13, 110, 253, 1)" stroke-width="1.5"></path><path d="M1609.71 671.39L1311.51 551.13" stroke="rgba(13, 110, 253, 1)" stroke-width="1.5"></path><circle r="5" cx="-60.14" cy="397.52" fill="rgba(13, 110, 253, 1)"></circle><circle r="5" cx="-68.66" cy="515.91" fill="rgba(13, 110, 253, 1)"></circle><circle r="5" cx="-56.68" cy="704.75" fill="rgba(13, 110, 253, 1)"></circle><circle r="5" cx="82.51" cy="351.73" fill="rgba(13, 110, 253, 1)"></circle><circle r="5" cx="93.47" cy="493.21" fill="rgba(13, 110, 253, 1)"></circle><circle r="5" cx="50.71" cy="698.82" fill="rgba(13, 110, 253, 1)"></circle><circle r="5" cx="208.87" cy="522.77" fill="rgba(13, 110, 253, 1)"></circle><circle r="5" cx="215.13" cy="681.18" fill="rgba(13, 110, 253, 1)"></circle><circle r="5" cx="380.92" cy="386.13" fill="rgba(13, 110, 253, 1)"></circle><circle r="5" cx="379.16" cy="541.13" fill="rgba(13, 110, 253, 1)"></circle><circle r="5" cx="377.93" cy="670" fill="rgba(13, 110, 253, 1)"></circle><circle r="5" cx="523.28" cy="359.71" fill="rgba(13, 110, 253, 1)"></circle><circle r="5" cx="504.48" cy="498.97" fill="rgba(13, 110, 253, 1)"></circle><circle r="5" cx="519.99" cy="668.22" fill="rgba(13, 110, 253, 1)"></circle><circle r="5" cx="639.09" cy="344.03" fill="rgba(13, 110, 253, 1)"></circle><circle r="5" cx="705.97" cy="652.75" fill="rgba(13, 110, 253, 1)"></circle><circle r="5" cx="787.65" cy="220.75" fill="rgba(13, 110, 253, 1)"></circle><circle r="5" cx="793.8" cy="389.2" fill="rgba(13, 110, 253, 1)"></circle><circle r="5" cx="818.61" cy="561.66" fill="rgba(13, 110, 253, 1)"></circle><circle r="5" cx="824.52" cy="696.45" fill="rgba(13, 110, 253, 1)"></circle><circle r="5" cx="958.3" cy="-54.3" fill="rgba(13, 110, 253, 1)"></circle><circle r="5" cx="939.63" cy="82.79" fill="rgba(13, 110, 253, 1)"></circle><circle r="5" cx="1006.01" cy="244.88" fill="rgba(13, 110, 253, 1)"></circle><circle r="5" cx="1012.34" cy="404.77" fill="rgba(13, 110, 253, 1)"></circle><circle r="5" cx="989.18" cy="492.12" fill="rgba(13, 110, 253, 1)"></circle><circle r="5" cx="938" cy="672.69" fill="rgba(13, 110, 253, 1)"></circle><circle r="5" cx="1136.04" cy="-112.3" fill="rgba(13, 110, 253, 1)"></circle><circle r="5" cx="1099.14" cy="105.61" fill="rgba(13, 110, 253, 1)"></circle><circle r="5" cx="1109.3" cy="211.92" fill="rgba(13, 110, 253, 1)"></circle><circle r="5" cx="1119.63" cy="369.11" fill="rgba(13, 110, 253, 1)"></circle><circle r="5" cx="1159.21" cy="556.35" fill="rgba(13, 110, 253, 1)"></circle><circle r="5" cx="1150.2" cy="652.73" fill="rgba(13, 110, 253, 1)"></circle><circle r="5" cx="1270.09" cy="-64.76" fill="rgba(13, 110, 253, 1)"></circle><circle r="5" cx="1311.44" cy="55.07" fill="rgba(13, 110, 253, 1)"></circle><circle r="5" cx="1264.68" cy="245.63" fill="rgba(13, 110, 253, 1)"></circle><circle r="5" cx="1294.66" cy="338.9" fill="rgba(13, 110, 253, 1)"></circle><circle r="5" cx="1311.51" cy="551.13" fill="rgba(13, 110, 253, 1)"></circle><circle r="5" cx="1296.05" cy="679.99" fill="rgba(13, 110, 253, 1)"></circle><circle r="5" cx="1418.31" cy="-80.11" fill="rgba(13, 110, 253, 1)"></circle><circle r="5" cx="1429.92" cy="69.38" fill="rgba(13, 110, 253, 1)"></circle><circle r="5" cx="1424.88" cy="401.94" fill="rgba(13, 110, 253, 1)"></circle><circle r="5" cx="1449.45" cy="553.82" fill="rgba(13, 110, 253, 1)"></circle><circle r="5" cx="1411.12" cy="642.61" fill="rgba(13, 110, 253, 1)"></circle><circle r="5" cx="1607.93" cy="-64.84" fill="rgba(13, 110, 253, 1)"></circle><circle r="5" cx="1562.57" cy="61.23" fill="rgba(13, 110, 253, 1)"></circle><circle r="5" cx="1539.84" cy="208.37" fill="rgba(13, 110, 253, 1)"></circle><circle r="5" cx="1572.69" cy="402.4" fill="rgba(13, 110, 253, 1)"></circle><circle r="5" cx="1568.85" cy="516.62" fill="rgba(13, 110, 253, 1)"></circle><circle r="5" cx="1609.71" cy="671.39" fill="rgba(13, 110, 253, 1)"></circle><path d="M209.62 673.76L209.62 673.76" stroke="hsl(215.70000000000005, 91.7%, 30.8%)" stroke-width="1.5"></path><path d="M209.62 673.76L111.2 680.88" stroke="hsl(215.70000000000005, 91.7%, 30.8%)" stroke-width="1.5"></path><path d="M209.62 673.76L248.06 513.85" stroke="hsl(215.70000000000005, 91.7%, 30.8%)" stroke-width="1.5"></path><path d="M209.62 673.76L103.92 546.5" stroke="hsl(215.70000000000005, 91.7%, 30.8%)" stroke-width="1.5"></path><path d="M362.66 537.76L362.66 537.76" stroke="hsl(215.70000000000005, 91.7%, 30.8%)" stroke-width="1.5"></path><path d="M362.66 537.76L248.06 513.85" stroke="hsl(215.70000000000005, 91.7%, 30.8%)" stroke-width="1.5"></path><path d="M362.66 537.76L499.43 533.47" stroke="hsl(215.70000000000005, 91.7%, 30.8%)" stroke-width="1.5"></path><path d="M362.66 537.76L393.48 676.59" stroke="hsl(215.70000000000005, 91.7%, 30.8%)" stroke-width="1.5"></path><path d="M362.66 537.76L209.62 673.76" stroke="hsl(215.70000000000005, 91.7%, 30.8%)" stroke-width="1.5"></path><path d="M362.66 537.76L530.72 705.08" stroke="hsl(215.70000000000005, 91.7%, 30.8%)" stroke-width="1.5"></path><path d="M683.23 407.53L683.23 407.53" stroke="hsl(215.70000000000005, 91.7%, 30.8%)" stroke-width="1.5"></path><path d="M683.23 407.53L640.81 518.23" stroke="hsl(215.70000000000005, 91.7%, 30.8%)" stroke-width="1.5"></path><path d="M683.23 407.53L857.1 361.07" stroke="hsl(215.70000000000005, 91.7%, 30.8%)" stroke-width="1.5"></path><path d="M683.23 407.53L499.43 533.47" stroke="hsl(215.70000000000005, 91.7%, 30.8%)" stroke-width="1.5"></path><path d="M857.1 361.07L857.1 361.07" stroke="hsl(215.70000000000005, 91.7%, 30.8%)" stroke-width="1.5"></path><path d="M857.1 361.07L999.7 374.43" stroke="hsl(215.70000000000005, 91.7%, 30.8%)" stroke-width="1.5"></path><path d="M857.1 361.07L942.25 507.97" stroke="hsl(215.70000000000005, 91.7%, 30.8%)" stroke-width="1.5"></path><path d="M857.1 361.07L859.18 562.24" stroke="hsl(215.70000000000005, 91.7%, 30.8%)" stroke-width="1.5"></path><path d="M1238.63 382.41L1238.63 382.41" stroke="hsl(215.70000000000005, 91.7%, 30.8%)" stroke-width="1.5"></path><path d="M1238.63 382.41L1139.25 349.48" stroke="hsl(215.70000000000005, 91.7%, 30.8%)" stroke-width="1.5"></path><path d="M1238.63 382.41L1295.34 258.22" stroke="hsl(215.70000000000005, 91.7%, 30.8%)" stroke-width="1.5"></path><path d="M1238.63 382.41L1283.01 529.93" stroke="hsl(215.70000000000005, 91.7%, 30.8%)" stroke-width="1.5"></path><path d="M1238.63 382.41L1110.73 249.06" stroke="hsl(215.70000000000005, 91.7%, 30.8%)" stroke-width="1.5"></path><path d="M1238.63 382.41L1430.55 396.39" stroke="hsl(215.70000000000005, 91.7%, 30.8%)" stroke-width="1.5"></path><path d="M1283.01 529.93L1283.01 529.93" stroke="hsl(215.70000000000005, 91.7%, 30.8%)" stroke-width="1.5"></path><path d="M1283.01 529.93L1263.2 653.19" stroke="hsl(215.70000000000005, 91.7%, 30.8%)" stroke-width="1.5"></path><path d="M1283.01 529.93L1136.02 547.3" stroke="hsl(215.70000000000005, 91.7%, 30.8%)" stroke-width="1.5"></path><path d="M1283.01 529.93L1439.14 561.21" stroke="hsl(215.70000000000005, 91.7%, 30.8%)" stroke-width="1.5"></path><path d="M1283.01 529.93L1394.04 693.42" stroke="hsl(215.70000000000005, 91.7%, 30.8%)" stroke-width="1.5"></path><path d="M1263.2 653.19L1263.2 653.19" stroke="hsl(215.70000000000005, 91.7%, 30.8%)" stroke-width="1.5"></path><path d="M1263.2 653.19L1136.99 674.2" stroke="hsl(215.70000000000005, 91.7%, 30.8%)" stroke-width="1.5"></path><path d="M1263.2 653.19L1394.04 693.42" stroke="hsl(215.70000000000005, 91.7%, 30.8%)" stroke-width="1.5"></path><path d="M1263.2 653.19L1136.02 547.3" stroke="hsl(215.70000000000005, 91.7%, 30.8%)" stroke-width="1.5"></path><path d="M1458.14 55.23L1458.14 55.23" stroke="hsl(215.70000000000005, 91.7%, 30.8%)" stroke-width="1.5"></path><path d="M1458.14 55.23L1594.21 57.42" stroke="hsl(215.70000000000005, 91.7%, 30.8%)" stroke-width="1.5"></path><path d="M1458.14 55.23L1445.57 -108.35" stroke="hsl(215.70000000000005, 91.7%, 30.8%)" stroke-width="1.5"></path><path d="M1458.14 55.23L1289.1 39.31" stroke="hsl(215.70000000000005, 91.7%, 30.8%)" stroke-width="1.5"></path><path d="M1458.14 55.23L1566.89 -99.22" stroke="hsl(215.70000000000005, 91.7%, 30.8%)" stroke-width="1.5"></path><path d="M1458.14 55.23L1565.6 235.6" stroke="hsl(215.70000000000005, 91.7%, 30.8%)" stroke-width="1.5"></path><path d="M1458.14 55.23L1256.05 -106.35" stroke="hsl(215.70000000000005, 91.7%, 30.8%)" stroke-width="1.5"></path><path d="M1439.14 561.21L1439.14 561.21" stroke="hsl(215.70000000000005, 91.7%, 30.8%)" stroke-width="1.5"></path><path d="M1439.14 561.21L1550.76 536.23" stroke="hsl(215.70000000000005, 91.7%, 30.8%)" stroke-width="1.5"></path><path d="M1439.14 561.21L1394.04 693.42" stroke="hsl(215.70000000000005, 91.7%, 30.8%)" stroke-width="1.5"></path><path d="M1439.14 561.21L1430.55 396.39" stroke="hsl(215.70000000000005, 91.7%, 30.8%)" stroke-width="1.5"></path><path d="M1439.14 561.21L1582.09 670.2" stroke="hsl(215.70000000000005, 91.7%, 30.8%)" stroke-width="1.5"></path><path d="M1439.14 561.21L1263.2 653.19" stroke="hsl(215.70000000000005, 91.7%, 30.8%)" stroke-width="1.5"></path><path d="M1551.08 366.93L1551.08 366.93" stroke="hsl(215.70000000000005, 91.7%, 30.8%)" stroke-width="1.5"></path><path d="M1551.08 366.93L1430.55 396.39" stroke="hsl(215.70000000000005, 91.7%, 30.8%)" stroke-width="1.5"></path><path d="M1551.08 366.93L1565.6 235.6" stroke="hsl(215.70000000000005, 91.7%, 30.8%)" stroke-width="1.5"></path><path d="M1551.08 366.93L1550.76 536.23" stroke="hsl(215.70000000000005, 91.7%, 30.8%)" stroke-width="1.5"></path><path d="M1551.08 366.93L1439.14 561.21" stroke="hsl(215.70000000000005, 91.7%, 30.8%)" stroke-width="1.5"></path><path d="M1551.08 366.93L1295.34 258.22" stroke="hsl(215.70000000000005, 91.7%, 30.8%)" stroke-width="1.5"></path><path d="M-82.01 526.92L-82.01 526.92" stroke="hsl(215.70000000000005, 91.7%, 30.8%)" stroke-width="1.5"></path><path d="M-82.01 526.92L-81.24 710.71" stroke="hsl(215.70000000000005, 91.7%, 30.8%)" stroke-width="1.5"></path><path d="M-82.01 526.92L103.92 546.5" stroke="hsl(215.70000000000005, 91.7%, 30.8%)" stroke-width="1.5"></path><path d="M-82.01 526.92L111.2 680.88" stroke="hsl(215.70000000000005, 91.7%, 30.8%)" stroke-width="1.5"></path><path d="M-82.01 526.92L209.62 673.76" stroke="hsl(215.70000000000005, 91.7%, 30.8%)" stroke-width="1.5"></path><path d="M-81.24 710.71L-81.24 710.71" stroke="hsl(215.70000000000005, 91.7%, 30.8%)" stroke-width="1.5"></path><path d="M-81.24 710.71L111.2 680.88" stroke="hsl(215.70000000000005, 91.7%, 30.8%)" stroke-width="1.5"></path><path d="M-81.24 710.71L103.92 546.5" stroke="hsl(215.70000000000005, 91.7%, 30.8%)" stroke-width="1.5"></path><path d="M-81.24 710.71L209.62 673.76" stroke="hsl(215.70000000000005, 91.7%, 30.8%)" stroke-width="1.5"></path><path d="M-81.24 710.71L248.06 513.85" stroke="hsl(215.70000000000005, 91.7%, 30.8%)" stroke-width="1.5"></path><path d="M103.92 546.5L103.92 546.5" stroke="hsl(215.70000000000005, 91.7%, 30.8%)" stroke-width="1.5"></path><path d="M103.92 546.5L111.2 680.88" stroke="hsl(215.70000000000005, 91.7%, 30.8%)" stroke-width="1.5"></path><path d="M103.92 546.5L248.06 513.85" stroke="hsl(215.70000000000005, 91.7%, 30.8%)" stroke-width="1.5"></path><path d="M103.92 546.5L362.66 537.76" stroke="hsl(215.70000000000005, 91.7%, 30.8%)" stroke-width="1.5"></path><path d="M111.2 680.88L111.2 680.88" stroke="hsl(215.70000000000005, 91.7%, 30.8%)" stroke-width="1.5"></path><path d="M248.06 513.85L248.06 513.85" stroke="hsl(215.70000000000005, 91.7%, 30.8%)" stroke-width="1.5"></path><path d="M393.48 676.59L393.48 676.59" stroke="hsl(215.70000000000005, 91.7%, 30.8%)" stroke-width="1.5"></path><path d="M393.48 676.59L530.72 705.08" stroke="hsl(215.70000000000005, 91.7%, 30.8%)" stroke-width="1.5"></path><path d="M393.48 676.59L499.43 533.47" stroke="hsl(215.70000000000005, 91.7%, 30.8%)" stroke-width="1.5"></path><path d="M499.43 533.47L499.43 533.47" stroke="hsl(215.70000000000005, 91.7%, 30.8%)" stroke-width="1.5"></path><path d="M499.43 533.47L640.81 518.23" stroke="hsl(215.70000000000005, 91.7%, 30.8%)" stroke-width="1.5"></path><path d="M499.43 533.47L530.72 705.08" stroke="hsl(215.70000000000005, 91.7%, 30.8%)" stroke-width="1.5"></path><path d="M530.72 705.08L530.72 705.08" stroke="hsl(215.70000000000005, 91.7%, 30.8%)" stroke-width="1.5"></path><path d="M530.72 705.08L640.81 518.23" stroke="hsl(215.70000000000005, 91.7%, 30.8%)" stroke-width="1.5"></path><path d="M530.72 705.08L209.62 673.76" stroke="hsl(215.70000000000005, 91.7%, 30.8%)" stroke-width="1.5"></path><path d="M640.81 518.23L640.81 518.23" stroke="hsl(215.70000000000005, 91.7%, 30.8%)" stroke-width="1.5"></path><path d="M640.81 518.23L859.18 562.24" stroke="hsl(215.70000000000005, 91.7%, 30.8%)" stroke-width="1.5"></path><path d="M640.81 518.23L857.1 361.07" stroke="hsl(215.70000000000005, 91.7%, 30.8%)" stroke-width="1.5"></path><path d="M640.81 518.23L362.66 537.76" stroke="hsl(215.70000000000005, 91.7%, 30.8%)" stroke-width="1.5"></path><path d="M859.18 562.24L859.18 562.24" stroke="hsl(215.70000000000005, 91.7%, 30.8%)" stroke-width="1.5"></path><path d="M859.18 562.24L942.25 507.97" stroke="hsl(215.70000000000005, 91.7%, 30.8%)" stroke-width="1.5"></path><path d="M859.18 562.24L1010.26 638.97" stroke="hsl(215.70000000000005, 91.7%, 30.8%)" stroke-width="1.5"></path><path d="M999.7 374.43L999.7 374.43" stroke="hsl(215.70000000000005, 91.7%, 30.8%)" stroke-width="1.5"></path><path d="M999.7 374.43L1139.25 349.48" stroke="hsl(215.70000000000005, 91.7%, 30.8%)" stroke-width="1.5"></path><path d="M942.25 507.97L942.25 507.97" stroke="hsl(215.70000000000005, 91.7%, 30.8%)" stroke-width="1.5"></path><path d="M942.25 507.97L999.7 374.43" stroke="hsl(215.70000000000005, 91.7%, 30.8%)" stroke-width="1.5"></path><path d="M942.25 507.97L1010.26 638.97" stroke="hsl(215.70000000000005, 91.7%, 30.8%)" stroke-width="1.5"></path><path d="M942.25 507.97L1136.02 547.3" stroke="hsl(215.70000000000005, 91.7%, 30.8%)" stroke-width="1.5"></path><path d="M942.25 507.97L1139.25 349.48" stroke="hsl(215.70000000000005, 91.7%, 30.8%)" stroke-width="1.5"></path><path d="M1010.26 638.97L1010.26 638.97" stroke="hsl(215.70000000000005, 91.7%, 30.8%)" stroke-width="1.5"></path><path d="M1010.26 638.97L1136.99 674.2" stroke="hsl(215.70000000000005, 91.7%, 30.8%)" stroke-width="1.5"></path><path d="M1010.26 638.97L1136.02 547.3" stroke="hsl(215.70000000000005, 91.7%, 30.8%)" stroke-width="1.5"></path><path d="M1151.47 49.77L1151.47 49.77" stroke="hsl(215.70000000000005, 91.7%, 30.8%)" stroke-width="1.5"></path><path d="M1151.47 49.77L1289.1 39.31" stroke="hsl(215.70000000000005, 91.7%, 30.8%)" stroke-width="1.5"></path><path d="M1151.47 49.77L1256.05 -106.35" stroke="hsl(215.70000000000005, 91.7%, 30.8%)" stroke-width="1.5"></path><path d="M1110.73 249.06L1110.73 249.06" stroke="hsl(215.70000000000005, 91.7%, 30.8%)" stroke-width="1.5"></path><path d="M1110.73 249.06L1139.25 349.48" stroke="hsl(215.70000000000005, 91.7%, 30.8%)" stroke-width="1.5"></path><path d="M1110.73 249.06L999.7 374.43" stroke="hsl(215.70000000000005, 91.7%, 30.8%)" stroke-width="1.5"></path><path d="M1110.73 249.06L1295.34 258.22" stroke="hsl(215.70000000000005, 91.7%, 30.8%)" stroke-width="1.5"></path><path d="M1139.25 349.48L1139.25 349.48" stroke="hsl(215.70000000000005, 91.7%, 30.8%)" stroke-width="1.5"></path><path d="M1136.02 547.3L1136.02 547.3" stroke="hsl(215.70000000000005, 91.7%, 30.8%)" stroke-width="1.5"></path><path d="M1136.02 547.3L1136.99 674.2" stroke="hsl(215.70000000000005, 91.7%, 30.8%)" stroke-width="1.5"></path><path d="M1136.02 547.3L1238.63 382.41" stroke="hsl(215.70000000000005, 91.7%, 30.8%)" stroke-width="1.5"></path><path d="M1136.99 674.2L1136.99 674.2" stroke="hsl(215.70000000000005, 91.7%, 30.8%)" stroke-width="1.5"></path><path d="M1136.99 674.2L1283.01 529.93" stroke="hsl(215.70000000000005, 91.7%, 30.8%)" stroke-width="1.5"></path><path d="M1136.99 674.2L942.25 507.97" stroke="hsl(215.70000000000005, 91.7%, 30.8%)" stroke-width="1.5"></path><path d="M1256.05 -106.35L1256.05 -106.35" stroke="hsl(215.70000000000005, 91.7%, 30.8%)" stroke-width="1.5"></path><path d="M1256.05 -106.35L1289.1 39.31" stroke="hsl(215.70000000000005, 91.7%, 30.8%)" stroke-width="1.5"></path><path d="M1256.05 -106.35L1445.57 -108.35" stroke="hsl(215.70000000000005, 91.7%, 30.8%)" stroke-width="1.5"></path><path d="M1256.05 -106.35L1566.89 -99.22" stroke="hsl(215.70000000000005, 91.7%, 30.8%)" stroke-width="1.5"></path><path d="M1256.05 -106.35L1295.34 258.22" stroke="hsl(215.70000000000005, 91.7%, 30.8%)" stroke-width="1.5"></path><path d="M1289.1 39.31L1289.1 39.31" stroke="hsl(215.70000000000005, 91.7%, 30.8%)" stroke-width="1.5"></path><path d="M1295.34 258.22L1295.34 258.22" stroke="hsl(215.70000000000005, 91.7%, 30.8%)" stroke-width="1.5"></path><path d="M1295.34 258.22L1139.25 349.48" stroke="hsl(215.70000000000005, 91.7%, 30.8%)" stroke-width="1.5"></path><path d="M1445.57 -108.35L1445.57 -108.35" stroke="hsl(215.70000000000005, 91.7%, 30.8%)" stroke-width="1.5"></path><path d="M1445.57 -108.35L1566.89 -99.22" stroke="hsl(215.70000000000005, 91.7%, 30.8%)" stroke-width="1.5"></path><path d="M1430.55 396.39L1430.55 396.39" stroke="hsl(215.70000000000005, 91.7%, 30.8%)" stroke-width="1.5"></path><path d="M1430.55 396.39L1550.76 536.23" stroke="hsl(215.70000000000005, 91.7%, 30.8%)" stroke-width="1.5"></path><path d="M1394.04 693.42L1394.04 693.42" stroke="hsl(215.70000000000005, 91.7%, 30.8%)" stroke-width="1.5"></path><path d="M1394.04 693.42L1582.09 670.2" stroke="hsl(215.70000000000005, 91.7%, 30.8%)" stroke-width="1.5"></path><path d="M1394.04 693.42L1550.76 536.23" stroke="hsl(215.70000000000005, 91.7%, 30.8%)" stroke-width="1.5"></path><path d="M1566.89 -99.22L1566.89 -99.22" stroke="hsl(215.70000000000005, 91.7%, 30.8%)" stroke-width="1.5"></path><path d="M1566.89 -99.22L1594.21 57.42" stroke="hsl(215.70000000000005, 91.7%, 30.8%)" stroke-width="1.5"></path><path d="M1566.89 -99.22L1289.1 39.31" stroke="hsl(215.70000000000005, 91.7%, 30.8%)" stroke-width="1.5"></path><path d="M1566.89 -99.22L1565.6 235.6" stroke="hsl(215.70000000000005, 91.7%, 30.8%)" stroke-width="1.5"></path><path d="M1594.21 57.42L1594.21 57.42" stroke="hsl(215.70000000000005, 91.7%, 30.8%)" stroke-width="1.5"></path><path d="M1565.6 235.6L1565.6 235.6" stroke="hsl(215.70000000000005, 91.7%, 30.8%)" stroke-width="1.5"></path><path d="M1565.6 235.6L1594.21 57.42" stroke="hsl(215.70000000000005, 91.7%, 30.8%)" stroke-width="1.5"></path><path d="M1550.76 536.23L1550.76 536.23" stroke="hsl(215.70000000000005, 91.7%, 30.8%)" stroke-width="1.5"></path><path d="M1550.76 536.23L1582.09 670.2" stroke="hsl(215.70000000000005, 91.7%, 30.8%)" stroke-width="1.5"></path><path d="M1550.76 536.23L1283.01 529.93" stroke="hsl(215.70000000000005, 91.7%, 30.8%)" stroke-width="1.5"></path><path d="M1582.09 670.2L1582.09 670.2" stroke="hsl(215.70000000000005, 91.7%, 30.8%)" stroke-width="1.5"></path><path d="M1582.09 670.2L1551.08 366.93" stroke="hsl(215.70000000000005, 91.7%, 30.8%)" stroke-width="1.5"></path><circle r="25" cx="209.62" cy="673.76" fill="url(#SvgjsRadialGradient1505)"></circle><circle r="25" cx="362.66" cy="537.76" fill="url(#SvgjsRadialGradient1505)"></circle><circle r="25" cx="683.23" cy="407.53" fill="url(#SvgjsRadialGradient1505)"></circle><circle r="25" cx="857.1" cy="361.07" fill="url(#SvgjsRadialGradient1505)"></circle><circle r="25" cx="1238.63" cy="382.41" fill="url(#SvgjsRadialGradient1505)"></circle><circle r="25" cx="1283.01" cy="529.93" fill="url(#SvgjsRadialGradient1505)"></circle><circle r="25" cx="1263.2" cy="653.19" fill="url(#SvgjsRadialGradient1505)"></circle><circle r="25" cx="1458.14" cy="55.23" fill="url(#SvgjsRadialGradient1505)"></circle><circle r="25" cx="1439.14" cy="561.21" fill="url(#SvgjsRadialGradient1505)"></circle><circle r="25" cx="1551.08" cy="366.93" fill="url(#SvgjsRadialGradient1505)"></circle><circle r="5" cx="-82.01" cy="526.92" fill="#8299ba"></circle><circle r="5" cx="-81.24" cy="710.71" fill="#8299ba"></circle><circle r="5" cx="103.92" cy="546.5" fill="#8299ba"></circle><circle r="5" cx="111.2" cy="680.88" fill="#8299ba"></circle><circle r="5" cx="248.06" cy="513.85" fill="#8299ba"></circle><circle r="5" cx="393.48" cy="676.59" fill="#8299ba"></circle><circle r="5" cx="499.43" cy="533.47" fill="#8299ba"></circle><circle r="5" cx="530.72" cy="705.08" fill="#8299ba"></circle><circle r="5" cx="640.81" cy="518.23" fill="#8299ba"></circle><circle r="5" cx="859.18" cy="562.24" fill="#8299ba"></circle><circle r="5" cx="999.7" cy="374.43" fill="#8299ba"></circle><circle r="5" cx="942.25" cy="507.97" fill="#8299ba"></circle><circle r="5" cx="1010.26" cy="638.97" fill="#8299ba"></circle><circle r="5" cx="1151.47" cy="49.77" fill="#8299ba"></circle><circle r="5" cx="1110.73" cy="249.06" fill="#8299ba"></circle><circle r="5" cx="1139.25" cy="349.48" fill="#8299ba"></circle><circle r="5" cx="1136.02" cy="547.3" fill="#8299ba"></circle><circle r="5" cx="1136.99" cy="674.2" fill="#8299ba"></circle><circle r="5" cx="1256.05" cy="-106.35" fill="#8299ba"></circle><circle r="5" cx="1289.1" cy="39.31" fill="#8299ba"></circle><circle r="5" cx="1295.34" cy="258.22" fill="#8299ba"></circle><circle r="5" cx="1445.57" cy="-108.35" fill="#8299ba"></circle><circle r="5" cx="1430.55" cy="396.39" fill="#8299ba"></circle><circle r="5" cx="1394.04" cy="693.42" fill="#8299ba"></circle><circle r="5" cx="1566.89" cy="-99.22" fill="#8299ba"></circle><circle r="5" cx="1594.21" cy="57.42" fill="#8299ba"></circle><circle r="5" cx="1565.6" cy="235.6" fill="#8299ba"></circle><circle r="5" cx="1550.76" cy="536.23" fill="#8299ba"></circle><circle r="5" cx="1582.09" cy="670.2" fill="#8299ba"></circle></g><defs><mask id="SvgjsMask1503"><rect width="1440" height="560" fill="#ffffff"></rect></mask><linearGradient x1="15.28%" y1="-39.29%" x2="84.72%" y2="139.29%" gradientUnits="userSpaceOnUse" id="SvgjsLinearGradient1504"><stop stop-color="#0e2a47" offset="0"></stop><stop stop-color="rgba(255, 255, 255, 1)" offset="1"></stop></linearGradient><radialGradient id="SvgjsRadialGradient1505"><stop stop-color="#ffffff" offset="0.1"></stop><stop stop-color="rgba(5, 50, 116, 1)" offset="0.2"></stop><stop stop-color="rgba(5, 50, 116, 0)" offset="1"></stop></radialGradient></defs></svg>